HIERARCHY
ROOT joint_Root
{
	OFFSET 0.0 0.0 0.0
	CHANNELS 6 Xposition Yposition Zposition Zrotation Xrotation Yrotation 
	JOINT Hips
	{
		OFFSET 4.5925 91.4895 -427.239
		CHANNELS 6 Xposition Yposition Zposition Zrotation Xrotation Yrotation 
		JOINT Spine
		{
			OFFSET 15.7357 0.0 0.0
			CHANNELS 6 Xposition Yposition Zposition Zrotation Xrotation Yrotation 
			JOINT Chest
			{
				OFFSET 8.98455 -0.406207 0.0
				CHANNELS 6 Xposition Yposition Zposition Zrotation Xrotation Yrotation 
				JOINT Neck
				{
					OFFSET 16.3773 0.0 0.0
					CHANNELS 6 Xposition Yposition Zposition Zrotation Xrotation Yrotation 
					JOINT Head
					{
						OFFSET 6.45672 0.0 0.0
						CHANNELS 6 Xposition Yposition Zposition Zrotation Xrotation Yrotation 
						End Site
						{
							OFFSET 0.0 0.0 0.0
						}
					}
				}
				JOINT Shoulder_L
				{
					OFFSET 12.9942 -0.242716 4.98039
					CHANNELS 6 Xposition Yposition Zposition Zrotation Xrotation Yrotation 
					JOINT UpperArm_L
					{
						OFFSET 5.34809 0.0 0.0
						CHANNELS 6 Xposition Yposition Zposition Zrotation Xrotation Yrotation 
						JOINT LowerArm_L
						{
							OFFSET 24.3286 1.87007e-05 0.0
							CHANNELS 6 Xposition Yposition Zposition Zrotation Xrotation Yrotation 
							JOINT Hand_L
							{
								OFFSET 22.2916 0.0 0.0
								CHANNELS 6 Xposition Yposition Zposition Zrotation Xrotation Yrotation 
								End Site
								{
									OFFSET 0.0 0.0 0.0
								}
							}
						}
					}
				}
				JOINT Shoulder_R
				{
					OFFSET 12.9945 -0.242716 -4.98039
					CHANNELS 6 Xposition Yposition Zposition Zrotation Xrotation Yrotation 
					JOINT UpperArm_R
					{
						OFFSET -5.34813 0.0 0.0
						CHANNELS 6 Xposition Yposition Zposition Zrotation Xrotation Yrotation 
						JOINT LowerArm_R
						{
							OFFSET -24.3289 0.000322201 0.0
							CHANNELS 6 Xposition Yposition Zposition Zrotation Xrotation Yrotation 
							JOINT Hand_R
							{
								OFFSET -22.2915 -0.000108084 0.0
								CHANNELS 6 Xposition Yposition Zposition Zrotation Xrotation Yrotation 
								End Site
								{
									OFFSET 0.0 0.0 0.0
								}
							}
						}
					}
				}
			}
		}
		JOINT UpperLeg_L
		{
			OFFSET -2.19248 -6.46944 0.0
			CHANNELS 6 Xposition Yposition Zposition Zrotation Xrotation Yrotation 
			JOINT LowerLeg_L
			{
				OFFSET 39.0811 0.0 -1.23785e-05
				CHANNELS 6 Xposition Yposition Zposition Zrotation Xrotation Yrotation 
				JOINT Foot_L
				{
					OFFSET 40.9854 0.0 -1.26872e-05
					CHANNELS 6 Xposition Yposition Zposition Zrotation Xrotation Yrotation 
					JOINT Toes_L
					{
						OFFSET 11.7543 0.0 0.0
						CHANNELS 6 Xposition Yposition Zposition Zrotation Xrotation Yrotation 
						End Site
						{
							OFFSET 0.0 0.0 0.0
						}
					}
				}
			}
		}
		JOINT UpperLeg_R
		{
			OFFSET -2.19251 6.46944 0.0
			CHANNELS 6 Xposition Yposition Zposition Zrotation Xrotation Yrotation 
			JOINT LowerLeg_R
			{
				OFFSET -39.0811 -0.00228153 -0.0401928
				CHANNELS 6 Xposition Yposition Zposition Zrotation Xrotation Yrotation 
				JOINT Foot_R
				{
					OFFSET -40.9854 0.0 0.0
					CHANNELS 6 Xposition Yposition Zposition Zrotation Xrotation Yrotation 
					JOINT Toes_R
					{
						OFFSET -11.7543 0.0 0.0
						CHANNELS 6 Xposition Yposition Zposition Zrotation Xrotation Yrotation 
						End Site
						{
							OFFSET 0.0 0.0 0.0
						}
					}
				}
			}
		}
	}
}
MOTION
Frames:	5
Frame Time:	0.0333333
0.000000 0.000000 0.000000 0.000000 0.000000 -0.000000 0.728113 81.439500 -1.626110 89.155700 -2.590170 10.786100 15.735700 0.000005 -0.000001 91.412600 80.568500 -92.046800 8.984550 -0.406207 -0.000000 11.094200 0.443100 -1.310740 16.377300 -0.000001 -0.000001 -2.921330 -5.556710 1.687560 6.456720 -0.000001 -0.000000 -5.540160 -7.919880 7.248840 12.994200 -0.242716 4.980390 -91.480600 4.945150 -73.308600 5.348090 -0.000007 -0.000001 -58.952700 25.589400 -19.260100 24.328600 0.000019 0.000005 6.994030 17.561300 -22.125900 22.291600 -0.000001 0.000005 8.071870 5.367440 -1.949640 12.994500 -0.242716 -4.980390 88.553500 8.719840 -80.543500 -5.348130 -0.000001 -0.000004 -59.187500 34.610300 -13.328400 -24.328900 0.000322 -0.000009 -0.830827 -1.717480 -25.759500 -22.291500 -0.000108 -0.000004 18.873400 5.429600 -3.921930 -2.192480 -6.469440 -0.000000 -175.718000 -10.997500 -17.052100 39.081100 -0.000007 -0.000012 -0.436034 0.207562 64.545500 40.985400 -0.000006 -0.000013 1.750890 2.600500 -86.716400 11.754300 -0.000000 0.000003 -0.000301 -0.002612 -16.674800 -2.192510 6.469440 -0.000001 175.466000 14.143100 162.854000 -39.081100 -0.002282 -0.040193 0.098141 -0.044991 64.651900 -40.985400 0.000008 0.000006 6.282930 5.192690 -86.104200 -11.754300 -0.000006 -0.000006 -0.188007 -0.238825 -17.272400
0.000000 0.000000 0.000000 0.000000 0.000000 -0.000000 1.262180 83.330500 -0.880399 89.643800 -3.257180 10.559300 15.735700 0.000005 -0.000001 90.036200 81.457500 -90.057100 8.984550 -0.406207 -0.000000 9.318870 0.010463 -0.042535 16.377300 -0.000001 -0.000001 -1.396750 -5.727820 1.959300 6.456720 -0.000001 -0.000000 -4.293990 -7.660990 6.427050 12.994200 -0.242716 4.980390 -91.305300 4.113780 -72.377100 5.348090 -0.000007 -0.000001 -54.310000 19.294000 -20.111200 24.328600 0.000019 0.000005 7.611100 17.459900 -24.006600 22.291600 -0.000001 0.000005 7.396010 5.377630 -2.232940 12.994500 -0.242716 -4.980390 88.411900 8.684320 -79.594800 -5.348130 -0.000001 -0.000004 -60.845200 32.207700 -11.487500 -24.328900 0.000322 -0.000009 -0.317007 -0.745364 -22.972900 -22.291500 -0.000108 -0.000004 18.842800 5.411820 -3.325380 -2.192480 -6.469440 -0.000000 -176.568000 -11.479100 -13.850300 39.081100 -0.000007 -0.000012 -0.401568 0.241890 58.937800 40.985400 -0.000006 -0.000013 1.805880 2.244900 -84.590500 11.754300 -0.000000 0.000003 -0.000266 -0.002350 -16.665400 -2.192510 6.469440 -0.000001 174.767000 12.908900 165.599000 -39.081100 -0.002282 -0.040193 0.079058 -0.044826 59.419100 -40.985400 0.000008 0.000006 5.519480 5.387990 -83.779700 -11.754300 -0.000006 -0.000006 -0.098353 -0.134818 -17.414900
0.000000 0.000000 0.000000 0.000000 0.000000 -0.000000 1.690800 85.735100 -0.062255 90.194900 -4.133550 10.314000 15.735700 0.000005 -0.000001 90.833300 82.402500 -90.221300 8.984550 -0.406207 -0.000000 7.426510 0.218339 1.208530 16.377300 -0.000001 -0.000001 0.526016 -6.220760 2.302150 6.456720 -0.000001 -0.000000 -2.869980 -7.990540 5.496980 12.994200 -0.242716 4.980390 -90.886100 2.717390 -71.932300 5.348090 -0.000007 -0.000001 -47.460700 8.230800 -23.578800 24.328600 0.000019 0.000005 7.258560 15.488000 -25.501400 22.291600 -0.000001 0.000005 8.889550 5.344320 -1.209530 12.994500 -0.242716 -4.980390 88.410400 7.970150 -78.681000 -5.348130 -0.000001 -0.000004 -63.015600 28.886500 -7.773380 -24.328900 0.000322 -0.000009 -0.838785 -2.013080 -22.599100 -22.291500 -0.000108 -0.000004 18.460400 5.429080 -3.909770 -2.192480 -6.469440 -0.000000 -177.379000 -12.106300 -9.522510 39.081100 -0.000007 -0.000012 -0.318219 0.257293 51.043800 40.985400 -0.000006 -0.000013 1.735400 1.961180 -81.324900 11.754300 -0.000000 0.000003 -0.000216 -0.001972 -16.651800 -2.192510 6.469440 -0.000001 174.080000 11.784000 169.333000 -39.081100 -0.002282 -0.040193 0.057883 -0.042475 52.141700 -40.985400 0.000008 0.000006 4.945110 5.812070 -80.386300 -11.754300 -0.000006 -0.000006 -0.002124 -0.030263 -17.803700
0.000000 0.000000 0.000000 0.000000 0.000000 -0.000000 1.944710 87.911500 0.551237 90.064300 -4.556800 9.180930 15.735700 0.000005 -0.000001 91.765600 83.582000 -90.376200 8.984550 -0.406207 -0.000000 5.061040 0.361923 2.759660 16.377300 -0.000001 -0.000001 2.380580 -7.107300 3.052520 6.456720 -0.000001 -0.000000 -1.554700 -8.531880 4.440570 12.994200 -0.242716 4.980390 -90.337300 1.053700 -72.255200 5.348090 -0.000007 -0.000001 -41.199700 -7.160170 -28.045800 24.328600 0.000019 0.000005 5.512330 10.673200 -27.537800 22.291600 -0.000001 0.000005 11.854700 5.305320 -0.086027 12.994500 -0.242716 -4.980390 88.428000 7.010370 -77.326500 -5.348130 -0.000001 -0.000004 -63.624700 27.169900 -4.941710 -24.328900 0.000322 -0.000009 -1.202160 -2.868420 -22.731800 -22.291500 -0.000108 -0.000004 16.418600 5.436870 -4.179690 -2.192480 -6.469440 -0.000000 -177.627000 -12.182800 -6.278980 39.081100 -0.000007 -0.000012 -0.248931 0.265949 43.107400 40.985400 -0.000006 -0.000013 1.608730 1.849050 -77.801500 11.754300 -0.000000 0.000003 -0.000146 -0.001419 -16.631500 -2.192510 6.469440 -0.000001 174.063000 12.323300 172.338000 -39.081100 -0.002282 -0.040193 0.039579 -0.036968 44.488300 -40.985400 0.000008 0.000006 4.607890 7.094250 -76.589900 -11.754300 -0.000006 -0.000006 -0.003316 -0.044129 -18.367900
0.000000 0.000000 0.000000 0.000000 0.000000 -0.000000 2.075670 89.423200 0.798840 89.688300 -5.202590 7.284400 15.735700 0.000005 -0.000001 92.207300 84.823600 -90.129400 8.984550 -0.406207 -0.000000 2.576980 0.304384 4.144770 16.377300 -0.000001 -0.000001 3.581830 -7.861410 4.129590 6.456720 -0.000001 -0.000000 -0.670834 -8.849920 3.632090 12.994200 -0.242716 4.980390 -89.588800 -1.365930 -73.232600 5.348090 -0.000007 -0.000001 -33.144500 -21.100000 -30.602000 24.328600 0.000019 0.000005 4.657180 7.144520 -33.231000 22.291600 -0.000001 0.000005 16.966600 5.334510 -0.888028 12.994500 -0.242716 -4.980390 88.436900 6.333340 -76.105800 -5.348130 -0.000001 -0.000004 -62.590300 26.655200 -3.355150 -24.328900 0.000322 -0.000009 -0.918115 -2.143090 -23.174300 -22.291500 -0.000108 -0.000004 14.782700 5.432180 -4.012930 -2.192480 -6.469440 -0.000000 -177.668000 -12.648300 -4.889030 39.081100 -0.000007 -0.000012 -0.181265 0.241463 36.895700 40.985400 -0.000006 -0.000013 1.522320 1.892160 -74.883400 11.754300 -0.000000 0.000003 -0.000093 -0.000969 -16.614800 -2.192510 6.469440 -0.000001 174.410000 13.893100 173.668000 -39.081100 -0.002282 -0.040193 0.027116 -0.030266 38.218400 -40.985400 0.000008 0.000006 4.693750 9.282600 -73.551600 -11.754300 -0.000006 -0.000006 -0.003664 -0.047903 -18.521500
